<svg width="28" height="28" viewBox="0 0 28 28" fill="none" xmlns="http://www.w3.org/2000/svg">
<path fill-rule="evenodd" clip-rule="evenodd" d="M27.44 14.3182C27.44 13.3255 27.3509 12.371 27.1854 11.4546H14V16.87H21.5345C21.21 18.62 20.2236 20.1028 18.7409 21.0955V24.6082H23.2654C25.9127 22.1709 27.44 18.5819 27.44 14.3182Z" fill="#4285F4"/>
<path fill-rule="evenodd" clip-rule="evenodd" d="M13.9999 28.0001C17.7799 28.0001 20.949 26.7465 23.2653 24.6083L18.7408 21.0956C17.4872 21.9356 15.8835 22.432 13.9999 22.432C10.3535 22.432 7.26719 19.9692 6.16628 16.6602H1.48901V20.2874C3.79265 24.8629 8.52719 28.0001 13.9999 28.0001Z" fill="#34A853"/>
<path fill-rule="evenodd" clip-rule="evenodd" d="M6.16636 16.6602C5.88636 15.8202 5.72726 14.9229 5.72726 14.0002C5.72726 13.0774 5.88636 12.1802 6.16636 11.3402V7.71289H1.48909C0.540908 9.60289 0 11.7411 0 14.0002C0 16.2592 0.540908 18.3974 1.48909 20.2874L6.16636 16.6602Z" fill="#FBBC05"/>
<path fill-rule="evenodd" clip-rule="evenodd" d="M13.9999 5.56817C16.0554 5.56817 17.9008 6.27454 19.3517 7.66181L23.3672 3.64636C20.9426 1.38727 17.7735 0 13.9999 0C8.52718 0 3.79265 3.13727 1.48901 7.71272L6.16628 11.34C7.26719 8.0309 10.3535 5.56817 13.9999 5.56817Z" fill="#EA4335"/>
</svg>
